<svg xmlns="http://www.w3.org/2000/svg" xmlns:xlink="http://www.w3.org/1999/xlink" width="500" zoomAndPan="magnify" viewBox="0 0 375 374.999991" height="500" preserveAspectRatio="xMidYMid meet" version="1.0"><defs><g/><clipPath id="8ff2a7bffb"><path d="M 187.5 0 C 83.945312 0 0 83.945312 0 187.5 C 0 291.054688 83.945312 375 187.5 375 C 291.054688 375 375 291.054688 375 187.5 C 375 83.945312 291.054688 0 187.5 0 Z M 187.5 0 " clip-rule="nonzero"/></clipPath><clipPath id="72435477ae"><path d="M 0 0 L 375 0 L 375 375 L 0 375 Z M 0 0 " clip-rule="nonzero"/></clipPath><clipPath id="706d837073"><path d="M 187.5 0 C 83.945312 0 0 83.945312 0 187.5 C 0 291.054688 83.945312 375 187.5 375 C 291.054688 375 375 291.054688 375 187.5 C 375 83.945312 291.054688 0 187.5 0 Z M 187.5 0 " clip-rule="nonzero"/></clipPath><clipPath id="5d82c8a783"><rect x="0" width="375" y="0" height="375"/></clipPath><clipPath id="deee2a431d"><path d="M 169 168 L 206 168 L 206 207 L 169 207 Z M 169 168 " clip-rule="nonzero"/></clipPath><clipPath id="2ba394346e"><path d="M 25.5 50.546875 L 324.453125 25.5 L 349.5 324.453125 L 50.546875 349.5 Z M 25.5 50.546875 " clip-rule="nonzero"/></clipPath><clipPath id="a391258079"><path d="M 25.5 50.546875 L 324.453125 25.5 L 349.5 324.453125 L 50.546875 349.5 Z M 25.5 50.546875 " clip-rule="nonzero"/></clipPath><clipPath id="84a3305496"><path d="M 235 92 L 324 92 L 324 221 L 235 221 Z M 235 92 " clip-rule="nonzero"/></clipPath><clipPath id="c32828178a"><path d="M 25.5 50.546875 L 324.453125 25.5 L 349.5 324.453125 L 50.546875 349.5 Z M 25.5 50.546875 " clip-rule="nonzero"/></clipPath><clipPath id="ab45d5843b"><path d="M 25.5 50.546875 L 324.453125 25.5 L 349.5 324.453125 L 50.546875 349.5 Z M 25.5 50.546875 " clip-rule="nonzero"/></clipPath><clipPath id="f0d48df6f6"><path d="M 51 154 L 140 154 L 140 283 L 51 283 Z M 51 154 " clip-rule="nonzero"/></clipPath><clipPath id="046f8fd713"><path d="M 25.5 50.546875 L 324.453125 25.5 L 349.5 324.453125 L 50.546875 349.5 Z M 25.5 50.546875 " clip-rule="nonzero"/></clipPath><clipPath id="82329f1289"><path d="M 25.5 50.546875 L 324.453125 25.5 L 349.5 324.453125 L 50.546875 349.5 Z M 25.5 50.546875 " clip-rule="nonzero"/></clipPath><clipPath id="ba65271c60"><path d="M 92 51 L 221 51 L 221 140 L 92 140 Z M 92 51 " clip-rule="nonzero"/></clipPath><clipPath id="a5e708bae0"><path d="M 25.5 50.546875 L 324.453125 25.5 L 349.5 324.453125 L 50.546875 349.5 Z M 25.5 50.546875 " clip-rule="nonzero"/></clipPath><clipPath id="366d2b270d"><path d="M 25.5 50.546875 L 324.453125 25.5 L 349.5 324.453125 L 50.546875 349.5 Z M 25.5 50.546875 " clip-rule="nonzero"/></clipPath><clipPath id="a2f60b15f4"><path d="M 154 235 L 283 235 L 283 324 L 154 324 Z M 154 235 " clip-rule="nonzero"/></clipPath><clipPath id="f54042dae2"><path d="M 25.5 50.546875 L 324.453125 25.5 L 349.5 324.453125 L 50.546875 349.5 Z M 25.5 50.546875 " clip-rule="nonzero"/></clipPath><clipPath id="5b9d2b9128"><path d="M 25.5 50.546875 L 324.453125 25.5 L 349.5 324.453125 L 50.546875 349.5 Z M 25.5 50.546875 " clip-rule="nonzero"/></clipPath><clipPath id="cf441c4813"><path d="M 203 51 L 252.820312 51 L 252.820312 98.648438 L 203 98.648438 Z M 203 51 " clip-rule="nonzero"/></clipPath><clipPath id="dbf8191b96"><path d="M 201.070312 47 L 250 47 L 250 94 L 201.070312 94 Z M 201.070312 47 " clip-rule="nonzero"/></clipPath><clipPath id="7b596f9a8c"><path d="M 123 289 L 158.683594 289 L 158.683594 323.488281 L 123 323.488281 Z M 123 289 " clip-rule="nonzero"/></clipPath><clipPath id="7be0e95663"><path d="M 121.183594 286 L 157 286 L 157 321 L 121.183594 321 Z M 121.183594 286 " clip-rule="nonzero"/></clipPath><clipPath id="1e772ac282"><path d="M 89.46875 141.859375 L 285.53125 141.859375 L 285.53125 194.835938 L 89.46875 194.835938 Z M 89.46875 141.859375 " clip-rule="nonzero"/></clipPath><clipPath id="982efd098f"><path d="M 0.46875 0.859375 L 196.53125 0.859375 L 196.53125 53.835938 L 0.46875 53.835938 Z M 0.46875 0.859375 " clip-rule="nonzero"/></clipPath><clipPath id="b5adfe76b1"><rect x="0" width="197" y="0" height="54"/></clipPath><clipPath id="5fd764e7e0"><path d="M 82.230469 99 L 292 99 L 292 276.234375 L 82.230469 276.234375 Z M 82.230469 99 " clip-rule="nonzero"/></clipPath><clipPath id="e252c58fa1"><rect x="0" width="154" y="0" height="136"/></clipPath></defs><g clip-path="url(#8ff2a7bffb)"><g transform="matrix(1, 0, 0, 1, 0, 0)"><g clip-path="url(#5d82c8a783)"><g clip-path="url(#72435477ae)"><g clip-path="url(#706d837073)"><rect x="-82.5" width="540" fill="#e89027" height="539.999987" y="-82.499998" fill-opacity="1"/></g></g></g></g></g><g clip-path="url(#deee2a431d)"><g clip-path="url(#2ba394346e)"><g clip-path="url(#a391258079)"><path fill="#ffffff" d="M 195.054688 168.375 C 190.882812 178.9375 179.269531 188.191406 169.113281 189.039062 C 179.269531 188.191406 184.117188 196.0625 179.945312 206.625 C 184.117188 196.0625 195.730469 186.808594 205.886719 185.960938 C 195.730469 186.808594 190.882812 178.9375 195.054688 168.375 Z M 195.054688 168.375 " fill-opacity="1" fill-rule="nonzero"/></g></g></g><g clip-path="url(#84a3305496)"><g clip-path="url(#c32828178a)"><g clip-path="url(#ab45d5843b)"><path fill="#ffffff" d="M 319.664062 94.757812 C 331.066406 104.394531 315.683594 141.335938 285.304688 177.269531 C 268.441406 197.21875 250.503906 212.65625 235.929688 220.800781 C 248.765625 212.042969 263.335938 198.707031 277.183594 182.324219 C 307.558594 146.390625 322.941406 109.453125 311.539062 99.816406 C 306.46875 95.527344 296.953125 97.371094 285.273438 103.894531 C 300.601562 93.433594 313.460938 89.511719 319.664062 94.757812 Z M 319.664062 94.757812 " fill-opacity="1" fill-rule="nonzero"/></g></g></g><g clip-path="url(#f0d48df6f6)"><g clip-path="url(#046f8fd713)"><g clip-path="url(#82329f1289)"><path fill="#ffffff" d="M 55.335938 280.242188 C 43.933594 270.605469 59.316406 233.664062 89.695312 197.730469 C 106.558594 177.78125 124.496094 162.34375 139.070312 154.199219 C 126.234375 162.957031 111.664062 176.292969 97.816406 192.675781 C 67.441406 228.609375 52.058594 265.546875 63.460938 275.183594 C 68.53125 279.472656 78.046875 277.628906 89.726562 271.105469 C 74.398438 281.566406 61.539062 285.488281 55.335938 280.242188 Z M 55.335938 280.242188 " fill-opacity="1" fill-rule="nonzero"/></g></g></g><g clip-path="url(#ba65271c60)"><g clip-path="url(#a5e708bae0)"><g clip-path="url(#366d2b270d)"><path fill="#ffffff" d="M 94.757812 55.335938 C 104.394531 43.933594 141.335938 59.316406 177.269531 89.695312 C 197.21875 106.558594 212.65625 124.496094 220.800781 139.070312 C 212.042969 126.234375 198.707031 111.664062 182.324219 97.816406 C 146.390625 67.441406 109.453125 52.058594 99.816406 63.460938 C 95.527344 68.53125 97.371094 78.046875 103.894531 89.726562 C 93.433594 74.398438 89.511719 61.539062 94.757812 55.335938 Z M 94.757812 55.335938 " fill-opacity="1" fill-rule="nonzero"/></g></g></g><g clip-path="url(#a2f60b15f4)"><g clip-path="url(#f54042dae2)"><g clip-path="url(#5b9d2b9128)"><path fill="#ffffff" d="M 280.242188 319.664062 C 270.605469 331.066406 233.664062 315.683594 197.730469 285.304688 C 177.78125 268.441406 162.34375 250.503906 154.199219 235.929688 C 162.957031 248.765625 176.292969 263.335938 192.675781 277.183594 C 228.609375 307.558594 265.546875 322.941406 275.183594 311.539062 C 279.472656 306.46875 277.628906 296.953125 271.105469 285.273438 C 281.566406 300.601562 285.488281 313.460938 280.242188 319.664062 Z M 280.242188 319.664062 " fill-opacity="1" fill-rule="nonzero"/></g></g></g><g clip-path="url(#cf441c4813)"><path fill="#000000" d="M 205.023438 73.445312 C 203.460938 73.699219 203.410156 76.144531 204.960938 76.464844 C 218.121094 79.1875 223.84375 82.984375 227.019531 96.902344 C 227.375 98.480469 230.199219 98.453125 230.488281 96.867188 C 233.023438 83.050781 237.160156 78.910156 250.972656 76.378906 C 252.5625 76.089844 252.5625 73.429688 250.972656 73.136719 C 237.160156 70.605469 233.019531 66.46875 230.488281 52.65625 C 230.195312 51.066406 227.539062 51.066406 227.246094 52.65625 C 224.609375 67.03125 220.234375 70.929688 205.023438 73.445312 Z M 205.023438 73.445312 " fill-opacity="1" fill-rule="nonzero"/></g><g clip-path="url(#dbf8191b96)"><path fill="#ffffff" d="M 202.695312 69.273438 C 201.136719 69.53125 201.085938 71.972656 202.632812 72.292969 C 215.792969 75.015625 221.519531 78.8125 224.691406 92.734375 C 225.050781 94.308594 227.871094 94.285156 228.164062 92.695312 C 230.699219 78.882812 234.835938 74.742188 248.648438 72.210938 C 250.238281 71.917969 250.238281 69.257812 248.648438 68.96875 C 234.832031 66.433594 230.691406 62.296875 228.160156 48.484375 C 227.871094 46.894531 225.210938 46.894531 224.921875 48.484375 C 222.285156 62.863281 217.910156 66.761719 202.695312 69.273438 Z M 202.695312 69.273438 " fill-opacity="1" fill-rule="nonzero"/></g><g clip-path="url(#7b596f9a8c)"><path fill="#000000" d="M 124.066406 305.335938 C 122.929688 305.523438 122.890625 307.304688 124.019531 307.535156 C 133.613281 309.519531 137.785156 312.285156 140.097656 322.433594 C 140.359375 323.578125 142.414062 323.5625 142.625 322.402344 C 144.472656 312.335938 147.488281 309.320312 157.554688 307.476562 C 158.710938 307.261719 158.710938 305.324219 157.554688 305.113281 C 147.488281 303.265625 144.46875 300.25 142.625 290.183594 C 142.414062 289.027344 140.476562 289.027344 140.261719 290.183594 C 138.339844 300.664062 135.152344 303.503906 124.066406 305.335938 Z M 124.066406 305.335938 " fill-opacity="1" fill-rule="nonzero"/></g><g clip-path="url(#7be0e95663)"><path fill="#ffffff" d="M 122.371094 302.296875 C 121.234375 302.484375 121.199219 304.265625 122.324219 304.496094 C 131.917969 306.480469 136.089844 309.246094 138.402344 319.394531 C 138.664062 320.539062 140.71875 320.523438 140.933594 319.363281 C 142.777344 309.296875 145.792969 306.28125 155.859375 304.433594 C 157.015625 304.222656 157.019531 302.285156 155.859375 302.074219 C 145.792969 300.226562 142.773438 297.210938 140.929688 287.144531 C 140.71875 285.988281 138.78125 285.988281 138.566406 287.144531 C 136.644531 297.625 133.457031 300.464844 122.371094 302.296875 Z M 122.371094 302.296875 " fill-opacity="1" fill-rule="nonzero"/></g><g clip-path="url(#1e772ac282)"><g transform="matrix(1, 0, 0, 1, 89, 141)"><g clip-path="url(#b5adfe76b1)"><g clip-path="url(#982efd098f)"><path fill="#e89027" d="M 0.46875 0.859375 L 196.4375 0.859375 L 196.4375 53.835938 L 0.46875 53.835938 Z M 0.46875 0.859375 " fill-opacity="1" fill-rule="nonzero"/></g></g></g></g><g clip-path="url(#5fd764e7e0)"><path fill="#0b0a3f" d="M 291.234375 144.265625 C 290.949219 139.3125 292.765625 133.773438 289.476562 129.464844 C 283.710938 127.878906 277.960938 126.269531 272.179688 124.851562 C 271.875 117.6875 272.441406 110.503906 271.917969 103.359375 C 271.082031 98.484375 265.148438 100.183594 261.707031 100.144531 C 231.875 101.636719 204.390625 118.519531 186.847656 142.242188 C 167.976562 116.535156 137.050781 98.820312 104.667969 100.144531 C 104.023438 100.691406 102.71875 101.785156 102.058594 102.335938 C 101.074219 109.765625 102.003906 117.34375 101.601562 124.832031 C 95.046875 127.476562 85.351562 127.0625 82.230469 134.625 C 83.457031 137.613281 83.742188 140.84375 83.609375 144.058594 C 83.324219 181.976562 83.875 219.882812 83.34375 257.785156 C 82.851562 260.640625 83.382812 265.6875 87.484375 264.800781 C 100.734375 259.980469 115.007812 258.242188 129.070312 259.054688 C 148.183594 260.546875 168.035156 265.03125 183.742188 276.484375 C 185.273438 276.484375 188.316406 276.484375 189.828125 276.503906 C 198.523438 269.828125 209.070312 266.199219 219.488281 263.195312 C 241.8125 256.9375 265.917969 257.523438 287.863281 265.027344 C 292.550781 264.234375 291.28125 259.09375 291.324219 255.6875 C 291.121094 218.558594 291.292969 181.410156 291.234375 144.265625 Z M 91.589844 254.53125 C 91.703125 215.378906 91.570312 176.210938 91.644531 137.0625 C 94.988281 135.871094 98.355469 134.683594 101.71875 133.507812 C 101.644531 164.773438 101.664062 196.042969 101.703125 227.3125 C 101.269531 233 108.375 232 112.082031 232.355469 C 134.199219 233.28125 154.332031 244.53125 170.402344 259.144531 C 145.597656 249.125 117.355469 246.859375 91.589844 254.53125 Z M 199.566406 261.152344 C 211.835938 249.144531 225.976562 238.371094 242.78125 233.738281 C 251.441406 230.804688 260.609375 230.523438 269.605469 229.671875 C 272.515625 229.3125 271.914062 225.6875 272.121094 223.644531 C 272.101562 193.734375 272.082031 163.832031 272.101562 133.921875 C 275.710938 135.019531 279.324219 136.113281 282.953125 137.171875 C 283.464844 176.324219 282.972656 215.496094 283.195312 254.644531 C 255.695312 247.027344 225.65625 249.75 199.566406 261.152344 Z M 199.566406 261.152344 " fill-opacity="1" fill-rule="nonzero"/></g><g transform="matrix(1, 0, 0, 1, 111, 119)"><g clip-path="url(#e252c58fa1)"><g fill="#ffffff" fill-opacity="1"><g transform="translate(0.433972, 100.607438)"><g><path d="M 6.765625 0 L 6.765625 -95.875 L 32.859375 -95.875 L 76 -16.90625 L 76.125 -16.90625 L 119 -95.875 L 145.359375 -95.875 L 145.359375 0 L 127.234375 0 L 127.234375 -76.265625 L 126.96875 -76.265625 L 85.59375 0 L 66.796875 0 L 25.15625 -76.265625 L 24.875 -76.265625 L 24.875 0 Z M 6.765625 0 "/></g></g></g></g></g></svg>